#!OML:ASF H:\Dans Jumps\Project 1\Capture day 1\Session 1\subject.ASF
:FULLY-SPECIFIED
:DEGREES
458
root 0.118587 17.6761 10.7854 6.87089 -1.24869 -1.60327
lowerback -6.05868 0.380618 0.686729
upperback -0.262493 0.406722 1.62768
thorax 3.11987 0.201281 1.32743
lowerneck -14.4289 -0.237025 -2.16675
upperneck 19.6366 0.041284 0.665675
head 8.49577 -0.0727916 0.589048
rclavicle 8.19987e-016 3.97569e-015
rhumerus -26.3926 -18.2603 -80.3191
rradius 21.173
rwrist 43.1585
rhand -15.4915 -25.4937
rfingers 7.12502
rthumb 10.6907 -55.2017
lclavicle 8.19987e-016 3.97569e-015
lhumerus -26.151 6.82068 86.9174
lradius 14.5414
lwrist -1.51784
lhand -24.9316 -7.66189
lfingers 7.12502
lthumb 1.57767 22.312
rfemur -9.19039 -2.43472 19.8374
rtibia 18.8211
rfoot -15.2466 2.39531
rtoes 16.3918
lfemur -8.39995 8.70594 -17.6414
ltibia 17.1226
lfoot -11.6587 6.62233
ltoes -9.24744
459
root 0.119052 17.6757 10.7858 6.8662 -1.25263 -1.60707
lowerback -6.08358 0.377032 0.677654
upperback -0.284446 0.402446 1.63011
thorax 3.11116 0.199045 1.33474
lowerneck -14.5024 -0.222244 -2.14208
upperneck 19.4495 0.061548 0.646676
head 8.44556 -0.0621726 0.580318
rclavicle -1.49089e-016 -1.59028e-014
rhumerus -26.4678 -18.4296 -80.223
rradius 21.0458
rwrist 43.3603
rhand -15.4641 -25.491
rfingers 7.12502
rthumb 10.7172 -55.1976
lclavicle -1.49089e-016 -1.59028e-014
lhumerus -26.0546 6.92768 86.8571
lradius 14.5202
lwrist -1.53858
lhand -24.9259 -7.64603
lfingers 7.12502
lthumb 1.58317 22.3278
rfemur -9.1815 -2.42535 19.8391
rtibia 18.8178
rfoot -15.2567 2.38688
rtoes 16.3713
lfemur -8.37494 8.69476 -17.6363
ltibia 17.0923
lfoot -11.6653 6.62855
ltoes -9.21579
460
root 0.119573 17.6754 10.786 6.86415 -1.26246 -1.61013
lowerback -6.10822 0.375405 0.668536
upperback -0.306301 0.400851 1.63061
thorax 3.10237 0.198158 1.34032
lowerneck -14.5673 -0.205715 -2.12542
upperneck 19.2595 0.0835347 0.638324
head 8.39284 -0.050219 0.576684
rclavicle -8.89561e-015 -1.51076e-014
rhumerus -26.5418 -18.6002 -80.1323
rradius 20.9292
rwrist 43.5539
rhand -15.4453 -25.4926
rfingers 7.12502
rthumb 10.7353 -55.1983
lclavicle -8.89561e-015 -1.51076e-014
lhumerus -25.9511 7.00373 86.8069
lradius 14.491
lwrist -1.54614
lhand -24.934 -7.6249
lfingers 7.12502
lthumb 1.57526 22.349
rfemur -9.17641 -2.41506 19.8395
rtibia 18.8135
rfoot -15.2657 2.38154
rtoes 16.352
lfemur -8.34934 8.6852 -17.6329
ltibia 17.0568
lfoot -11.673 6.63856
ltoes -9.17416
461
root 0.120092 17.6751 10.7859 6.86632 -1.2787 -1.6172
lowerback -6.13532 0.376391 0.664216
upperback -0.329168 0.402409 1.63026
thorax 3.0939 0.198916 1.34261
lowerneck -14.6094 -0.194311 -2.13077
upperneck 19.0637 0.0978267 0.654326
head 8.33423 -0.0409743 0.583942
rclavicle -5.36719e-015 1.15295e-014
rhumerus -26.6189 -18.7614 -80.0483
rradius 20.8272
rwrist 43.7282
rhand -15.4335 -25.498
rfingers 7.12502
rthumb 10.7467 -55.2031
lclavicle -5.36719e-015 1.15295e-014
lhumerus -25.8474 7.07187 86.7585
lradius 14.4604
lwrist -1.57228
lhand -24.9511 -7.59431
lfingers 7.12502
lthumb 1.55877 22.3797
rfemur -9.17652 -2.39931 19.8442
rtibia 18.8078
rfoot -15.2741 2.37727
rtoes 16.3446
lfemur -8.32559 8.67506 -17.626
ltibia 17.0178
lfoot -11.6812 6.65422
ltoes -9.11456
462
root 0.120595 17.6749 10.7854 6.87235 -1.29838 -1.62365
lowerback -6.15938 0.377601 0.659229
upperback -0.354628 0.404442 1.62898
thorax 3.08103 0.199917 1.3443
lowerneck -14.6269 -0.188389 -2.14889
upperneck 18.859 0.105057 0.679396
head 8.26837 -0.035024 0.595464
rclavicle -4.5472e-015 -1.35174e-014
rhumerus -26.6993 -18.9093 -79.971
rradius 20.7388
rwrist 43.8871
rhand -15.44 -25.4943
rfingers 7.12502
rthumb 10.7404 -55.1997
lclavicle -4.5472e-015 -1.35174e-014
lhumerus -25.7456 7.16021 86.7035
lradius 14.4291
lwrist -1.65028
lhand -24.977 -7.58302
lfingers 7.12502
lthumb 1.53375 22.3912
rfemur -9.18326 -2.38143 19.8487
rtibia 18.8027
rfoot -15.2816 2.37206
rtoes 16.3355
lfemur -8.30486 8.66261 -17.6207
ltibia 16.9743
lfoot -11.6861 6.6751
ltoes -9.05288
463
root 0.121099 17.6748 10.7846 6.88225 -1.31841 -1.62988
lowerback -6.19044 0.378614 0.655265
upperback -0.376631 0.405989 1.62683
thorax 3.07568 0.200681 1.34457
lowerneck -14.6673 -0.184392 -2.13939
upperneck 18.6645 0.109682 0.676207
head 8.2103 -0.0312678 0.592713
rclavicle 6.75868e-015 3.18055e-015
rhumerus -26.7736 -19.038 -79.9047
rradius 20.6655
rwrist 44.0224
rhand -15.4507 -25.4913
rfingers 7.12502
rthumb 10.7301 -55.1973
lclavicle 6.75868e-015 3.18055e-015
lhumerus -25.6408 7.27792 86.6412
lradius 14.4011
lwrist -1.79151
lhand -25.0074 -7.59957
lfingers 7.12502
lthumb 1.50442 22.3749
rfemur -9.19584 -2.36863 19.8531
rtibia 18.7969
rfoot -15.2869 2.37143
rtoes 16.3319
lfemur -8.28804 8.64584 -17.6162
ltibia 16.9283
lfoot -11.687 6.69996
ltoes -9.00455
464
root 0.121393 17.6748 10.7832 6.9012 -1.34481 -1.6324
lowerback -6.22617 0.378472 0.644556
upperback -0.402358 0.406437 1.62523
thorax 3.06906 0.200811 1.34913
lowerneck -14.6945 -0.185802 -2.14533
upperneck 18.4678 0.107907 0.683787
head 8.14933 -0.0305496 0.595374
rclavicle 2.38542e-015 2.54444e-014
rhumerus -26.849 -19.1205 -79.8553
rradius 20.6156
rwrist 44.1169
rhand -15.452 -25.4959
rfingers 7.12502
rthumb 10.7288 -55.202
lclavicle 2.38542e-015 2.54444e-014
lhumerus -25.5408 7.41345 86.5757
lradius 14.3662
lwrist -1.98845
lhand -25.0276 -7.61494
lfingers 7.12502
lthumb 1.48491 22.3596
rfemur -9.22248 -2.35669 19.8537
rtibia 18.7918
rfoot -15.2875 2.37838
rtoes 16.3328
lfemur -8.28174 8.63358 -17.6176
ltibia 16.8792
lfoot -11.6828 6.72493
ltoes -8.96448
465
root 0.121737 17.675 10.7814 6.9209 -1.36718 -1.63399
lowerback -6.26027 0.376036 0.634042
upperback -0.426581 0.403842 1.62304
thorax 3.06315 0.199431 1.35269
lowerneck -14.7462 -0.180662 -2.13502
upperneck 18.2891 0.113963 0.681717
head 8.09871 -0.0260491 0.5931
rclavicle -3.47873e-015 2.78299e-015
rhumerus -26.9136 -19.1908 -79.816
rradius 20.5705
rwrist 44.2017
rhand -15.4449 -25.5131
rfingers 7.12502
rthumb 10.7356 -55.2188
lclavicle -3.47873e-015 2.78299e-015
lhumerus -25.4359 7.54943 86.5128
lradius 14.3273
lwrist -2.2097
lhand -25.0486 -7.67363
lfingers 7.12502
lthumb 1.4646 22.3011
rfemur -9.2502 -2.35054 19.8532
rtibia 18.7855
rfoot -15.2854 2.38798
rtoes 16.345
lfemur -8.27819 8.61769 -17.6199
ltibia 16.8291
lfoot -11.6737 6.74862
ltoes -8.94681
466
root 0.122198 17.6752 10.7793 6.94145 -1.38706 -1.63183
lowerback -6.29405 0.371594 0.621758
upperback -0.448461 0.398704 1.61973
thorax 3.05952 0.196765 1.35589
lowerneck -14.7983 -0.167658 -2.10481
upperneck 18.1127 0.129009 0.665789
head 8.04893 -0.0173255 0.583944
rclavicle 1.04362e-015 -1.31198e-014
rhumerus -26.964 -19.2499 -79.787
rradius 20.5284
rwrist 44.2716
rhand -15.4366 -25.5356
rfingers 7.12502
rthumb 10.7436 -55.2409
lclavicle 1.04362e-015 -1.31198e-014
lhumerus -25.3218 7.66354 86.4611
lradius 14.2802
lwrist -2.42917
lhand -25.0762 -7.76795
lfingers 7.12502
lthumb 1.43801 22.2069
rfemur -9.28003 -2.35444 19.8476
rtibia 18.7787
rfoot -15.2795 2.40568
rtoes 16.3534
lfemur -8.2769 8.60319 -17.6269
ltibia 16.778
lfoot -11.6626 6.76664
ltoes -8.93483
467
root 0.122786 17.6756 10.777 6.95957 -1.40245 -1.63218
lowerback -6.32431 0.366256 0.614929
upperback -0.467742 0.392023 1.61592
thorax 3.05667 0.193402 1.35534
lowerneck -14.8511 -0.146509 -2.06104
upperneck 17.9412 0.152873 0.645732
head 8.00084 -0.00394516 0.572192
rclavicle -9.31803e-016 -9.54166e-015
rhumerus -27.0038 -19.3076 -79.7643
rradius 20.4878
rwrist 44.3366
rhand -15.4259 -25.5642
rfingers 7.12502
rthumb 10.754 -55.269
lclavicle -9.31803e-016 -9.54166e-015
lhumerus -25.1995 7.74117 86.4241
lradius 14.2273
lwrist -2.62894
lhand -25.1208 -7.89781
lfingers 7.12502
lthumb 1.39488 22.0774
rfemur -9.30634 -2.36356 19.8438
rtibia 18.7701
rfoot -15.2722 2.42643
rtoes 16.3696
lfemur -8.27469 8.58861 -17.6304
ltibia 16.7278
lfoot -11.6523 6.77695
ltoes -8.9141
468
root 0.123553 17.6758 10.7747 6.97275 -1.41376 -1.62921
lowerback -6.34892 0.360187 0.608217
upperback -0.482675 0.384461 1.60967
thorax 3.05517 0.18961 1.35213
lowerneck -14.9004 -0.116958 -2.0083
upperneck 17.7704 0.186288 0.624324
head 7.95231 0.0144165 0.559584
rclavicle 1.11444e-014 1.66979e-014
rhumerus -27.0291 -19.3786 -79.7448
rradius 20.4418
rwrist 44.406
rhand -15.4304 -25.5892
rfingers 7.12502
rthumb 10.7496 -55.2941
lclavicle 1.11444e-014 1.66979e-014
lhumerus -25.0683 7.79553 86.3975
lradius 14.1729
lwrist -2.81761
lhand -25.1771 -8.0557
lfingers 7.12502
lthumb 1.3405 21.9198
rfemur -9.32687 -2.37689 19.8355
rtibia 18.7611
rfoot -15.2635 2.44646
rtoes 16.3811
lfemur -8.26832 8.5724 -17.6368
ltibia 16.6782
lfoot -11.643 6.78203
ltoes -8.88271
